<svg width="281" height="196" viewBox="0 0 281 196" fill="none" xmlns="http://www.w3.org/2000/svg">
<path fill-rule="evenodd" clip-rule="evenodd" d="M212.177 114.572C212.851 114.572 213.311 114.113 213.311 113.439V95.6439L232.024 113.898C232.575 114.449 233.035 114.572 233.709 114.572H235.056C235.73 114.572 236.19 114.113 236.19 113.439V80.0539C236.19 79.38 235.73 78.9206 235.056 78.9206H228.87C228.196 78.9206 227.736 79.38 227.736 80.0539V98.0026L209.482 79.625C208.931 79.074 208.471 78.9511 207.797 78.9511H205.99C205.317 78.9511 204.857 79.411 204.857 80.0849V113.469C204.888 114.236 205.347 114.572 206.021 114.572H212.177ZM187.89 114.572H194.506C195.18 114.572 195.639 114.113 195.639 113.439V80.0539C195.639 79.38 195.179 78.9206 194.506 78.9206H187.89C187.216 78.9206 186.757 79.38 186.757 80.0539V113.439C186.757 114.143 187.216 114.572 187.89 114.572ZM166.48 115.123C171.627 115.123 176.343 112.673 179.344 109.763C179.895 109.213 180.14 108.63 179.344 107.987L175.639 104.189C175.179 103.73 174.628 103.73 174.077 104.311C171.718 106.21 169.482 107.099 166.787 107.099C161.305 107.099 157.17 103.055 157.17 96.6851C157.17 90.192 161.427 86.486 166.787 86.486C169.237 86.486 171.258 87.1599 173.617 89.0586C174.168 89.5181 174.628 89.5181 175.179 88.9357L178.763 85.2301C179.314 84.6792 179.437 84.0973 178.763 83.4534C175.73 80.5437 171.382 78.4 166.665 78.4C156.71 78.4 148.41 86.241 148.41 96.7766C148.472 107.619 155.976 115.123 166.48 115.123ZM246.45 114.572H267.737C268.411 114.572 268.871 114.113 268.871 113.438V108.079C268.871 107.405 268.411 106.946 267.737 106.946H253.863V100.33H265.073C265.747 100.33 266.206 99.8702 266.206 99.1963V93.8365C266.206 93.1625 265.746 92.7031 265.073 92.7031H253.862V86.5469H267.523C268.197 86.5469 268.656 86.0874 268.656 85.414V80.0537C268.656 79.3798 268.197 78.9204 267.523 78.9204H246.481C245.807 78.9204 245.348 79.3798 245.348 80.0537V113.438C245.317 114.143 245.777 114.572 246.45 114.572" fill="#FF142D"/>
<path fill-rule="evenodd" clip-rule="evenodd" d="M33.9534 114.602C34.6273 114.602 35.0862 114.143 35.0862 113.469V86.9149H42.7127C43.3867 86.9149 43.8461 86.4555 43.8461 85.7821V80.0843C43.8461 79.4104 43.3867 78.951 42.7127 78.951H18.6393C17.9654 78.951 17.506 79.4104 17.506 80.0843V85.7816C17.506 86.455 17.9654 86.9144 18.6393 86.9144H26.2659V113.469C26.2049 114.143 26.6643 114.602 27.3377 114.602H33.9539H33.9534ZM53.5558 114.602H74.9341C75.6075 114.602 76.0674 114.143 76.0674 113.469V108.109C76.0674 107.435 75.6075 106.976 74.9341 106.976H60.9364V100.36H72.2375C72.9114 100.36 73.3708 99.9008 73.3708 99.2274V93.8675C73.3708 93.1936 72.9119 92.7337 72.2375 92.7337H60.9369V86.5775H74.7191C75.393 86.5775 75.8525 86.1185 75.8525 85.4446V80.0843C75.8525 79.4104 75.393 78.951 74.7191 78.951H53.5558C52.8819 78.951 52.4225 79.4104 52.4225 80.0843V113.469C52.4225 114.143 52.8814 114.602 53.5558 114.602ZM86.4491 114.602H106.266C106.939 114.602 107.399 114.143 107.399 113.469V107.65C107.399 106.976 106.94 106.517 106.266 106.517H94.1681V80.0843C94.1681 79.4104 93.7082 78.951 93.0347 78.951H86.4491C85.7752 78.951 85.3158 79.4104 85.3158 80.0843V113.469C85.3472 114.143 85.8062 114.602 86.4491 114.602ZM117.844 114.602H139.13C139.804 114.602 140.263 114.143 140.263 113.469V108.109C140.263 107.435 139.804 106.976 139.13 106.976H125.255V100.36H136.465C137.139 100.36 137.598 99.9008 137.598 99.2274V93.8675C137.598 93.1936 137.139 92.7337 136.465 92.7337H125.255V86.5775H138.915C139.589 86.5775 140.049 86.1185 140.049 85.4446V80.0843C140.049 79.4104 139.589 78.951 138.916 78.951H117.874C117.2 78.951 116.741 79.4104 116.741 80.0843V113.469C116.71 114.143 117.17 114.602 117.844 114.602Z" fill="white"/>
</svg>
