<svg width="280" height="196" viewBox="0 0 280 196" fill="none" xmlns="http://www.w3.org/2000/svg">
<path d="M72.3542 131.144V134.999C72.3542 135.402 72.1535 135.604 71.7521 135.604H64.9414V142.597C64.9414 143 64.7407 143.202 64.3393 143.202H60.3517C59.9503 143.202 59.7496 143 59.7496 142.597V135.604H52.9019C52.5005 135.604 52.2998 135.402 52.2998 134.999V131.144C52.2998 130.741 52.5005 130.54 52.9019 130.54H59.7496V123.509C59.7496 123.106 59.9503 122.905 60.3517 122.905H64.3393C64.7407 122.905 64.9414 123.106 64.9414 123.509V130.54H71.7521C72.1535 130.54 72.3542 130.741 72.3542 131.144Z" fill="white"/>
<path d="M95.8706 145.101C94.2069 145.101 92.6356 144.825 91.1621 144.274C89.6858 143.725 88.3918 142.942 87.2774 141.931C86.163 140.923 85.2757 139.684 84.6181 138.217C83.9579 136.75 83.6278 135.103 83.6278 133.272C83.6278 131.442 83.9421 129.858 84.5706 128.423C85.1991 126.987 86.0547 125.756 87.1375 124.732C88.2202 123.708 89.5089 122.921 90.9983 122.369C92.4904 121.817 94.1145 121.541 95.8733 121.541C96.9402 121.541 97.9622 121.629 98.934 121.801C99.9058 121.973 100.772 122.22 101.525 122.533C101.649 122.597 101.744 122.676 101.807 122.769C101.871 122.865 101.902 123.005 101.902 123.196V125.183C101.902 125.656 101.744 125.892 101.432 125.892C101.305 125.892 101.15 125.844 100.962 125.751C99.6127 125.215 98.0889 124.947 96.3935 124.947C95.1682 124.947 94.0141 125.146 92.9314 125.539C91.8487 125.934 90.9059 126.494 90.1057 127.218C89.3056 127.942 88.677 128.818 88.2228 129.845C87.7686 130.869 87.5389 132.028 87.5389 133.323C87.5389 134.617 87.7739 135.822 88.2466 136.848C88.7167 137.872 89.361 138.74 90.177 139.451C90.993 140.162 91.949 140.703 93.0502 141.085C94.1488 141.462 95.3108 141.653 96.5361 141.653C97.4155 141.653 98.2553 141.573 99.0555 141.417C99.8556 141.257 100.603 141.056 101.292 140.801C101.48 140.74 101.622 140.706 101.717 140.706C102.032 140.706 102.187 140.96 102.187 141.464V143.451C102.187 143.735 102.045 143.939 101.765 144.067C100.981 144.382 100.077 144.634 99.0555 144.823C98.0361 145.011 96.9745 145.107 95.8759 145.107L95.8706 145.101Z" fill="white"/>
<path d="M128.131 121.965C128.413 121.965 128.556 122.125 128.556 122.44V144.25C128.556 144.534 128.398 144.677 128.086 144.677H125.213C124.93 144.677 124.79 144.518 124.79 144.205V140.323C124.006 141.902 122.852 143.09 121.328 143.894C119.804 144.698 118.164 145.101 116.406 145.101C115.056 145.101 113.723 144.833 112.402 144.298C111.084 143.762 109.899 142.982 108.848 141.955C107.794 140.931 106.949 139.684 106.304 138.217C105.66 136.75 105.341 135.087 105.341 133.227C105.341 131.367 105.655 129.757 106.283 128.306C106.912 126.857 107.744 125.626 108.779 124.616C109.814 123.608 111 122.836 112.333 122.297C113.667 121.761 115.04 121.493 116.453 121.493C118.244 121.493 119.868 121.865 121.328 122.605C122.788 123.345 123.927 124.504 124.743 126.083L124.79 122.393C124.79 122.109 124.946 121.965 125.26 121.965H128.133H128.131ZM117.063 141.695C118.13 141.695 119.136 141.499 120.076 141.103C121.016 140.708 121.843 140.151 122.548 139.424C123.256 138.7 123.81 137.817 124.22 136.777C124.626 135.737 124.832 134.569 124.832 133.275C124.832 131.98 124.629 130.871 124.22 129.845C123.81 128.821 123.261 127.953 122.572 127.242C121.88 126.534 121.056 125.979 120.1 125.587C119.141 125.191 118.13 124.995 117.063 124.995C115.996 124.995 114.945 125.191 114.002 125.587C113.06 125.982 112.228 126.542 111.507 127.266C110.783 127.993 110.218 128.86 109.811 129.868C109.402 130.879 109.199 132.012 109.199 133.275C109.199 134.538 109.41 135.734 109.835 136.777C110.26 137.819 110.839 138.7 111.578 139.424C112.315 140.151 113.155 140.711 114.098 141.103C115.04 141.496 116.028 141.695 117.063 141.695Z" fill="white"/>
<path d="M146.638 121.493C149.149 121.493 151.183 122.228 152.735 123.692C154.288 125.16 155.067 127.438 155.067 130.529V144.25C155.067 144.534 154.909 144.677 154.597 144.677H151.771C151.489 144.677 151.349 144.518 151.349 144.205V130.579C151.349 128.497 150.831 127.001 149.793 126.085C148.758 125.17 147.393 124.714 145.698 124.714C143.751 124.714 142.212 125.329 141.081 126.56C139.951 127.791 139.386 129.431 139.386 131.481V144.255C139.386 144.539 139.228 144.682 138.916 144.682H136.043C135.76 144.682 135.618 144.523 135.618 144.21V122.401C135.618 122.117 135.773 121.973 136.088 121.973H138.866C139.148 121.973 139.288 122.133 139.288 122.448V125.382C140.041 124.12 141.039 123.159 142.278 122.496C143.519 121.833 144.969 121.501 146.635 121.501L146.638 121.493Z" fill="white"/>
<path d="M183.324 121.965C183.607 121.965 183.749 122.125 183.749 122.44V144.25C183.749 144.534 183.591 144.677 183.279 144.677H180.406C180.123 144.677 179.983 144.518 179.983 144.205V140.323C179.199 141.902 178.045 143.09 176.521 143.894C174.997 144.698 173.358 145.101 171.599 145.101C170.249 145.101 168.916 144.833 167.595 144.298C166.277 143.762 165.092 142.982 164.041 141.955C162.987 140.931 162.142 139.684 161.498 138.217C160.853 136.75 160.534 135.087 160.534 133.227C160.534 131.367 160.848 129.757 161.476 128.306C162.105 126.857 162.937 125.626 163.972 124.616C165.007 123.608 166.193 122.836 167.527 122.297C168.86 121.761 170.233 121.493 171.646 121.493C173.437 121.493 175.061 121.865 176.521 122.605C177.982 123.345 179.12 124.504 179.936 126.083L179.983 122.393C179.983 122.109 180.139 121.965 180.453 121.965H183.327H183.324ZM172.256 141.695C173.323 141.695 174.329 141.499 175.269 141.103C176.21 140.708 177.036 140.151 177.741 139.424C178.449 138.7 179.004 137.817 179.413 136.777C179.82 135.737 180.026 134.569 180.026 133.275C180.026 131.98 179.822 130.871 179.413 129.845C179.004 128.821 178.454 127.953 177.765 127.242C177.073 126.534 176.249 125.979 175.293 125.587C174.335 125.191 173.323 124.995 172.256 124.995C171.189 124.995 170.138 125.191 169.196 125.587C168.253 125.982 167.421 126.542 166.7 127.266C165.976 127.993 165.411 128.86 165.005 129.868C164.595 130.879 164.392 132.012 164.392 133.275C164.392 134.538 164.603 135.734 165.028 136.777C165.454 137.819 166.032 138.7 166.771 139.424C167.508 140.151 168.348 140.711 169.291 141.103C170.233 141.499 171.221 141.695 172.256 141.695Z" fill="white"/>
<path d="M192.931 115.392C192.084 115.392 191.423 115.132 190.953 114.612C190.483 114.089 190.246 113.468 190.246 112.741C190.246 112.014 190.481 111.402 190.953 110.895C191.423 110.391 192.084 110.139 192.931 110.139C193.779 110.139 194.392 110.391 194.862 110.895C195.332 111.399 195.567 112.014 195.567 112.741C195.567 113.468 195.332 114.089 194.862 114.612C194.392 115.132 193.747 115.392 192.931 115.392ZM191.471 144.677C191.188 144.677 191.046 144.518 191.046 144.205V122.395C191.046 122.111 191.202 121.968 191.516 121.968H194.342C194.624 121.968 194.764 122.127 194.764 122.443V144.252C194.764 144.536 194.606 144.68 194.294 144.68H191.468L191.471 144.677Z" fill="white"/>
<path d="M208.472 145.101C207.247 145.101 205.985 144.958 204.683 144.677C203.378 144.393 202.319 144.014 201.503 143.541C201.345 143.446 201.268 143.321 201.268 143.165V140.278C201.268 140.087 201.316 139.995 201.411 139.995C201.506 139.995 201.583 140.013 201.646 140.042C202.589 140.61 203.648 141.053 204.826 141.366C206.003 141.682 207.186 141.838 208.38 141.838C210.012 141.838 211.293 141.525 212.22 140.891C213.147 140.262 213.609 139.392 213.609 138.289C213.609 137.721 213.474 137.241 213.207 136.846C212.941 136.453 212.571 136.105 212.101 135.806C211.631 135.506 211.05 135.246 210.358 135.026C209.666 134.805 208.898 134.569 208.05 134.317C207.139 134.065 206.267 133.766 205.436 133.418C204.604 133.073 203.872 132.646 203.246 132.142C202.618 131.638 202.124 131.038 201.762 130.346C201.4 129.651 201.221 128.818 201.221 127.839C201.221 126.86 201.424 126.027 201.833 125.236C202.24 124.449 202.813 123.777 203.553 123.226C204.289 122.676 205.169 122.249 206.191 121.95C207.21 121.65 208.317 121.501 209.51 121.501C210.704 121.501 211.803 121.621 212.901 121.857C214 122.093 215.003 122.419 215.914 122.828C216.07 122.891 216.149 123.016 216.149 123.204V125.95C216.149 126.138 216.086 126.234 215.962 126.234C215.867 126.234 215.788 126.218 215.727 126.186C214.847 125.743 213.836 125.39 212.69 125.122C211.544 124.854 210.485 124.719 209.51 124.719C208.002 124.719 206.856 124.987 206.072 125.523C205.288 126.059 204.894 126.77 204.894 127.653C204.894 128.189 205.026 128.645 205.296 129.025C205.562 129.404 205.924 129.72 206.378 129.972C206.833 130.224 207.366 130.455 207.979 130.659C208.591 130.863 209.244 131.062 209.933 131.251C210.905 131.534 211.832 131.85 212.711 132.198C213.59 132.545 214.359 132.972 215.019 133.474C215.679 133.978 216.197 134.593 216.572 135.32C216.95 136.044 217.137 136.928 217.137 137.97C217.137 140.178 216.353 141.921 214.781 143.197C213.21 144.473 211.108 145.112 208.47 145.112L208.472 145.101Z" fill="white"/>
<path d="M218.497 94.1214C214.57 94.1214 211.274 90.938 211.274 86.2927C211.274 81.6475 214.567 78.464 218.497 78.464C222.426 78.464 225.72 81.5812 225.72 86.2927C225.72 91.0043 222.426 94.1214 218.497 94.1214ZM173.835 94.1214C169.909 94.1214 166.613 91.0016 166.613 86.2927C166.613 81.5838 169.906 78.464 173.835 78.464C177.765 78.464 181.058 81.6475 181.058 86.2927C181.058 90.938 177.765 94.1214 173.835 94.1214ZM140.45 94.1214C136.397 94.1214 133.101 90.8133 133.101 86.2927C133.101 81.7722 136.394 78.464 140.45 78.464C144.507 78.464 147.8 81.7722 147.8 86.2927C147.8 90.8133 144.507 94.1214 140.45 94.1214ZM107.382 94.1214C103.455 94.1214 100.159 91.0016 100.159 86.2927C100.159 81.5838 103.452 78.464 107.382 78.464C111.311 78.464 114.605 81.6475 114.605 86.2927C114.605 90.938 111.311 94.1214 107.382 94.1214ZM73.9967 94.1214C69.9431 94.1214 66.6473 90.8133 66.6473 86.2927C66.6473 81.7722 69.9431 78.464 73.9967 78.464C78.0504 78.464 81.3461 81.7722 81.3461 86.2927C81.3461 90.8133 78.053 94.1214 73.9967 94.1214ZM28.8916 94.0578C24.9013 94.0578 21.5422 90.8743 21.5422 86.2291C21.5422 81.5838 24.8987 78.4004 28.8916 78.4004C32.8845 78.4004 36.1776 81.5202 36.1776 86.2291C36.1776 90.938 32.8845 94.0578 28.8916 94.0578ZM259.232 71.5294C258.281 71.5294 257.71 71.9114 257.457 72.7391L251.502 90.1129L244.66 72.7391C244.343 71.9114 243.836 71.5294 242.948 71.5294H237.183C236.043 71.5294 235.599 72.2297 236.106 73.3121L247.889 100.04L246.939 102.077C245.481 105.261 244.023 106.468 242.568 106.468C241.744 106.468 240.857 106.213 240.035 105.831C239.148 105.386 238.388 105.513 237.944 106.404L236.296 109.585C235.916 110.349 235.979 111.113 236.74 111.686C238.261 112.896 240.099 113.787 242.631 113.787C248.27 113.787 251.563 109.588 254.605 101.823L265.818 73.3121C266.261 72.2297 265.881 71.5294 264.74 71.5294H259.229H259.232ZM227.555 71.5294C226.604 71.5294 226.034 72.1024 226.034 73.0574V74.9038C224.259 72.7391 221.029 71.0227 217.673 71.0227C209.943 71.0227 203.611 77.6416 203.611 86.2954C203.611 94.9491 210.073 101.568 217.61 101.568C221.156 101.568 224.135 100.04 226.034 97.8143V99.5333C226.034 100.488 226.604 101.061 227.555 101.061H231.799C232.749 101.061 233.32 100.488 233.32 99.5333V73.0548C233.32 72.0997 232.749 71.5267 231.799 71.5267H227.555V71.5294ZM174.72 71.02C171.174 71.02 168.195 72.5481 166.293 74.7739V73.0548C166.293 72.0997 165.723 71.5267 164.772 71.5267H160.528C159.578 71.5267 159.007 72.0997 159.007 73.0548V111.75C159.007 112.705 159.578 113.278 160.528 113.278H165.216C166.167 113.278 166.737 112.705 166.737 111.75V98.1936C168.575 100.104 171.551 101.565 174.657 101.565C182.386 101.565 188.722 94.9465 188.722 86.2927C188.722 77.639 182.26 71.02 174.72 71.02ZM140.448 71.02C132.274 71.02 125.435 77.448 125.435 86.2927C125.435 95.1375 132.15 101.565 140.448 101.565C148.745 101.565 155.461 95.1375 155.461 86.2927C155.461 77.448 148.745 71.02 140.448 71.02ZM73.9914 71.02C65.8181 71.02 58.9784 77.448 58.9784 86.2927C58.9784 95.1375 65.694 101.565 73.9914 101.565C82.2889 101.565 89.0045 95.1375 89.0045 86.2927C89.0045 77.448 82.2889 71.02 73.9914 71.02ZM37.9443 71.5294C36.9936 71.5294 36.4232 72.1024 36.4232 73.0574V74.7128C34.7119 72.6117 31.5456 71.0227 28.3766 71.0227C20.6522 71.02 14 77.639 14 86.2927C14 94.9465 20.2719 100.931 28.1918 100.931C31.7384 100.931 34.4637 99.276 36.0482 97.5596C35.9848 103.606 32.8185 106.341 27.3678 106.341C24.455 106.341 21.7297 105.449 18.5633 103.415C17.7394 102.841 16.7887 103.033 16.345 103.924L14.4437 107.678C14 108.569 14.1268 109.397 15.0141 109.97C18.941 112.514 23.5677 113.787 27.558 113.787C38.0103 113.787 43.7752 108.123 43.7752 95.0765V73.0548C43.7752 72.0997 43.2048 71.5267 42.2541 71.5267H37.9469L37.9443 71.5294ZM193.789 59.3738C192.839 59.3738 192.268 59.9468 192.268 60.9019V99.5307C192.268 100.486 192.839 101.059 193.789 101.059H198.54C199.491 101.059 200.061 100.486 200.061 99.5307V60.8992C200.061 59.9442 199.491 59.3711 198.54 59.3711H193.789V59.3738ZM108.267 71.02C105.227 71.02 102.248 72.3571 100.286 74.3918V60.8992C100.286 59.9442 99.7156 59.3711 98.765 59.3711H94.0775C93.1268 59.3711 92.5564 59.9442 92.5564 60.8992V99.528C92.5564 100.483 93.1268 101.056 94.0775 101.056H98.3213C99.272 101.056 99.8424 100.483 99.8424 99.528V97.8726C101.68 99.9737 105.1 101.563 108.457 101.563C115.87 101.563 122.268 94.8165 122.268 86.2901C122.268 77.7637 115.806 71.0174 108.267 71.0174M50.8077 59.1191C48.9697 58.2914 47.7021 59.1191 47.7021 61.1565V99.276C47.7021 101.313 48.9697 102.141 50.8077 101.313L53.2161 100.231C54.7372 99.5307 55.4318 98.512 55.4318 96.8592V63.5733C55.4318 61.9179 54.7346 60.9019 53.2161 60.2015L50.8077 59.1191Z" fill="url(#paint0_linear_13734_46795)"/>
<defs>
<linearGradient id="paint0_linear_13734_46795" x1="14" y1="86.2927" x2="266" y2="86.2927" gradientUnits="userSpaceOnUse">
<stop offset="0.42" stop-color="#FB0134"/>
<stop offset="0.5" stop-color="#FB112D"/>
<stop offset="0.66" stop-color="#FC3D1D"/>
<stop offset="0.88" stop-color="#FE8204"/>
<stop offset="0.92" stop-color="#FF8F00"/>
</linearGradient>
</defs>
</svg>
